<svg width="75" height="117" viewBox="0 0 75 117" fill="none" xmlns="http://www.w3.org/2000/svg">
<g clip-path="url(#clip0_165_2611)">
<path d="M74.1202 81.3912C73.6346 92.4682 68.3917 102.201 60.4598 108.686C53.6609 114.246 44.8865 117.417 35.4448 116.998C14.9855 116.092 -0.865231 98.679 0.0366555 78.1074C0.0531743 77.7275 0.0928174 76.8355 0.231569 75.4942C2.79517 81.8438 6.91478 87.7242 13.446 91.6687C13.2379 91.4936 -0.802462 79.5444 8.41793 50.0663C10.0334 44.8961 14.2356 34.7937 19.2108 25.6691C14.8732 46.3266 19.8683 58.996 25.2565 56.5447C30.017 54.3808 26.6638 43.6705 28.3685 29.2932C30.3341 12.6826 40.496 0.0991082 40.5753 0.00330361V0C37.6285 24.4269 56.8291 35.2463 50.7042 64.0241C58.2133 46.092 53.5882 25.2297 53.5882 25.2297C67.3775 49.0884 60.767 82.151 54.1961 88.7681C66.3765 81.6885 69.515 65.5768 70.0997 52.2302C72.8681 64.2883 74.6058 70.2613 74.1202 81.3912Z" fill="#E7C08D"/>
<path d="M28.233 87.7376C27.7837 94.6984 29.9806 102.924 40.5258 108.042C40.5258 108.042 24.2455 97.067 36.2839 77.2949C45.2929 62.498 40.8396 53.1818 37.0999 38.5865C32.085 18.996 40.4993 0.211668 40.5753 0.00354004C40.496 0.0993447 30.3341 12.6828 28.3685 29.2934C26.6638 43.6707 30.017 54.381 25.2565 56.5449C19.8683 58.9962 14.8732 46.3268 19.2108 25.6693C14.2356 34.7939 10.0334 44.8964 8.41793 50.0665C-0.802462 79.5447 13.2379 91.4939 13.446 91.6689C6.91478 87.7244 2.79517 81.844 0.231569 75.4944C0.0928174 76.8357 0.0531743 77.7277 0.0366555 78.1076C-0.865231 98.6792 14.9855 116.093 35.4448 116.998C44.8865 117.417 53.6609 114.246 60.4598 108.686C33.086 126.862 22.6301 103.648 28.233 87.7376Z" fill="#B2283E"/>
</g>
<defs>
<clipPath id="clip0_165_2611">
<rect width="75" height="117" fill="white"/>
</clipPath>
</defs>
</svg>
